<?xml version="1.0" encoding="utf-8"?>
<!-- Generator: Adobe Illustrator 27.2.0, SVG Export Plug-In . SVG Version: 6.00 Build 0)  -->
<svg version="1.1" id="Capa_1" xmlns="http://www.w3.org/2000/svg" xmlns:xlink="http://www.w3.org/1999/xlink" x="0px" y="0px"
	 viewBox="0 0 517 499" style="enable-background:new 0 0 517 499;" xml:space="preserve">
<style type="text/css">
	.st0{fill:#FFFFFF;}
</style>
<g>
	<path class="st0" d="M135.8,265.2c5,0,9.5-4.5,9.5-9.5s-4.5-9.5-9.5-9.5H89.3c-4.5-19-21.8-33.6-42.6-33.6
		c-24.1,0-43.7,19.6-43.7,43.7S22.7,300,46.8,300c21.3,0,38.6-15.1,43.1-34.7H135.8z M46.8,280.9c-13.4,0-24.6-11.2-24.6-24.6
		s11.2-24.6,24.6-24.6c13.4,0,24.6,11.2,24.6,24.6C71.4,270.3,60.2,280.9,46.8,280.9z M108.9,150.4c7.8,0,15.7-2.2,22.4-6.2l33,33
		c1.7,1.7,4.5,2.8,6.7,2.8s5-1.1,6.7-2.8c3.9-3.9,3.9-9.5,0-13.4l-32.5-32.5c5-7.3,7.3-15.7,7.3-24.1c0-11.8-4.5-23-12.9-30.8
		c-8.4-8.4-19-12.9-30.8-12.9s-23,4.5-30.8,12.9c-8.4,8.4-12.9,19-12.9,30.8s4.5,23,12.9,30.8C86,146,97.2,150.4,108.9,150.4
		L108.9,150.4z M91,89.4c4.5-4.5,10.6-7.3,17.4-7.3s12.9,2.8,17.4,7.3c4.5,4.5,7.3,10.6,7.3,17.4s-2.8,12.9-7.3,17.4
		c-4.5,4.5-10.6,7.3-17.4,7.3s-12.9-2.8-17.4-7.3c-4.5-4.5-7.3-10.6-7.3-17.4S86.5,93.9,91,89.4z M247.2,87.2V137
		c0,5,4.5,9.5,9.5,9.5c5,0,9.5-4.5,9.5-9.5V87.7c20.2-3.9,35.3-21.8,35.3-43.1c0-24.1-19.6-43.7-43.7-43.7s-43.7,19.6-43.7,43.7
		C214.8,65.3,228.8,82.7,247.2,87.2L247.2,87.2z M258.4,20c13.4,0,24.6,11.2,24.6,24.6c0,13.4-11.2,24.6-24.6,24.6
		S233.8,58,233.8,44.6C233.8,31.2,245,20,258.4,20z M405.2,448.9v38.6c0,5-4.5,9.5-9.5,9.5s-9.5-4.5-9.5-9.5v-38.6
		c0-5.6-2.2-10.6-6.7-14c-34.2-28-71.1-47-78.4-50.4c-3.9-2.2-6.7-6.2-6.7-10.6v-54.3c0-3.4,1.7-6.2,4.5-7.8
		c4.5-2.8,7.3-7.8,7.3-13.4l0-56.6c0-23-18.5-41.4-41.4-41.4h-12.3c-23,0-41.4,18.5-41.4,41.4v56.6c0,5,2.8,10.1,7.3,13.4
		c2.8,1.7,4.5,4.5,4.5,7.8v54.3c0,4.5-2.8,9-6.7,10.6c-7.3,3.4-44.2,22.4-78.4,50.4c-3.9,3.4-6.7,8.4-6.7,14v38.6
		c0,5-4.5,9.5-9.5,9.5c-5,0-9.5-4.5-9.5-9.5v-38.6c0-11.2,5-21.3,13.4-28.6c31.4-25.8,65.5-44.2,78.4-51V324
		c-7.3-6.7-11.2-15.7-11.2-25.8l0-56.6c0-33,26.9-60.5,60.5-60.5h11.8c33,0,60.5,26.9,60.5,60.5v56.6c0,10.1-3.9,19-11.2,25.8v45.4
		c12.9,6.7,46.5,24.6,78.4,51C400.1,427.1,405.2,437.7,405.2,448.9L405.2,448.9z M346.9,180.1c2.2,0,5-1.1,6.7-2.8l33-33
		c6.7,3.9,14.6,6.2,22.4,6.2c11.8,0,23-4.5,30.8-12.9c16.8-16.8,16.8-44.8,0-62.2c-8.4-8.4-19-12.9-30.8-12.9s-23,4.5-30.8,12.9
		c-8.4,8.4-12.9,19-12.9,30.8c0,9,2.8,17.4,7.3,24.1l-32.5,32.5c-3.9,3.9-3.9,9.5,0,13.4C341.9,179,344.7,180.1,346.9,180.1
		L346.9,180.1z M391.7,89.4c4.5-4.5,10.6-7.3,17.4-7.3s12.9,2.8,17.4,7.3c9.5,9.5,9.5,25.2,0,34.7c-4.5,5-10.6,7.3-17.4,7.3
		c-6.7,0-12.9-2.8-17.4-7.3c-4.5-4.5-7.3-10.6-7.3-17.4C384.4,100,387.2,93.9,391.7,89.4L391.7,89.4z M471.2,212.6
		c-20.7,0-38.1,14.6-42.6,33.6h-47.6c-5,0-9.5,4.5-9.5,9.5c0,5,4.5,9.5,9.5,9.5h47C432,284.8,450,300,471.2,300
		c24.1,0,43.7-19.6,43.7-43.7C514.9,232.2,495.3,212.6,471.2,212.6L471.2,212.6z M471.2,280.9c-13.4,0-24.6-11.2-24.6-24.6
		s11.2-24.6,24.6-24.6c13.4,0,24.6,11.2,24.6,24.6C495.9,270.3,484.7,280.9,471.2,280.9z"/>
</g>
</svg>
