<?xml version="1.0" encoding="utf-8"?>
<!-- Generator: Adobe Illustrator 27.2.0, SVG Export Plug-In . SVG Version: 6.00 Build 0)  -->
<svg version="1.1" id="Capa_1" xmlns="http://www.w3.org/2000/svg" xmlns:xlink="http://www.w3.org/1999/xlink" x="0px" y="0px"
	 viewBox="0 0 535 486" style="enable-background:new 0 0 535 486;" xml:space="preserve">
<style type="text/css">
	.st0{fill:#FFFFFF;}
</style>
<g>
	<path class="st0" d="M465.2,44.2h-46.5V27.4c0-14-11.8-25.8-25.8-25.8h-18.5c-14,0-25.8,11.8-25.8,25.8v16.8H184.7V27.4
		c0-14-11.8-25.8-25.8-25.8h-18.5c-14,0-25.8,11.8-25.8,25.8v16.8H68.8C31.2,44.2,1,74.4,1,112l0,304.6c0,37.5,30.2,67.8,67.8,67.8
		h306.3c19,0,37-7.3,50.4-20.7l86.8-86.8c13.4-13.4,20.7-31.4,20.7-49.8V112.5C533,74.4,502.8,44.2,465.2,44.2L465.2,44.2z
		 M68.8,442.4c-14,0-25.8-11.8-25.8-25.8V180.8h448V327c0,2.2-0.6,3.9-1.1,5.6h-65.5c-24.1,0-43.7,19.6-43.7,43.7v65
		c-1.7,0.6-3.9,1.1-5.6,1.1L68.8,442.4z"/>
	<path class="st0" d="M148.3,257c0,16.4-13.3,29.7-29.7,29.7c-16.4,0-29.7-13.3-29.7-29.7s13.3-29.7,29.7-29.7
		C135,227.3,148.3,240.6,148.3,257"/>
	<path class="st0" d="M246.8,257c0,16.4-13.3,29.7-29.7,29.7s-29.7-13.3-29.7-29.7s13.3-29.7,29.7-29.7S246.8,240.6,246.8,257"/>
	<path class="st0" d="M345.4,257c0,16.4-13.3,29.7-29.7,29.7c-16.4,0-29.7-13.3-29.7-29.7s13.3-29.7,29.7-29.7
		C332.1,227.3,345.4,240.6,345.4,257"/>
	<path class="st0" d="M444,257c0,16.4-13.3,29.7-29.7,29.7c-16.4,0-29.7-13.3-29.7-29.7s13.3-29.7,29.7-29.7
		C430.7,227.3,444,240.6,444,257"/>
	<path class="st0" d="M148.3,362.8c0,16.4-13.3,29.7-29.7,29.7c-16.4,0-29.7-13.3-29.7-29.7s13.3-29.7,29.7-29.7
		C135,333.2,148.3,346.4,148.3,362.8"/>
	<path class="st0" d="M246.8,362.8c0,16.4-13.3,29.7-29.7,29.7s-29.7-13.3-29.7-29.7s13.3-29.7,29.7-29.7S246.8,346.4,246.8,362.8"
		/>
	<path class="st0" d="M345.4,362.8c0,16.4-13.3,29.7-29.7,29.7c-16.4,0-29.7-13.3-29.7-29.7s13.3-29.7,29.7-29.7
		C332.1,333.2,345.4,346.4,345.4,362.8"/>
</g>
</svg>
