<?xml version="1.0" encoding="utf-8"?>
<!-- Generator: Adobe Illustrator 27.2.0, SVG Export Plug-In . SVG Version: 6.00 Build 0)  -->
<svg version="1.1" id="Capa_1" xmlns="http://www.w3.org/2000/svg" xmlns:xlink="http://www.w3.org/1999/xlink" x="0px" y="0px"
	 viewBox="0 0 542 439" style="enable-background:new 0 0 542 439;" xml:space="preserve">
<style type="text/css">
	.st0{fill-rule:evenodd;clip-rule:evenodd;fill:#FFFFFF;}
</style>
<g>
	<path class="st0" d="M158.4,124c86.2,0,156.1,69.9,156.1,156.1c0,86.2-69.9,156.1-156.1,156.1c-86.2,0-156.1-69.9-156.1-156.1
		S72.2,124,158.4,124L158.4,124z M158.4,153.8c-34.9,0-66.5,14.1-89.3,37c-22.9,22.9-37,54.4-37,89.3s14.1,66.4,37,89.3
		c22.9,22.9,54.4,37,89.3,37s66.5-14.1,89.3-37c22.9-22.9,37-54.4,37-89.3s-14.1-66.5-37-89.3C224.9,168,193.3,153.8,158.4,153.8
		L158.4,153.8z M237.2,201.3c-20.2-20.2-48-32.6-78.8-32.6c-30.8,0-58.6,12.5-78.8,32.6S47,249.4,47,280.1
		c0,30.8,12.5,58.6,32.6,78.8s48,32.6,78.8,32.6c30.8,0,58.6-12.5,78.8-32.6s32.6-48,32.6-78.8C269.8,249.4,257.3,221.5,237.2,201.3
		z M203.8,237.4c-6.4-15.3-18.7-24.1-32.1-27.6c-1.9-0.5-3.9-0.9-5.9-1.1v-11.6c0-4.1-3.3-7.4-7.4-7.4s-7.4,3.3-7.4,7.4v11.7
		c-1,0.1-1.9,0.3-2.9,0.5c-7.8,1.6-15.1,4.8-20.9,9.6c-8.9,7.2-14.5,17.6-13.8,30.7c0.6,13,7.1,21.7,16.2,27.6
		c8.2,5.3,18.4,8.1,27.8,9.7c8.3,1.4,17.1,3.5,24,7.7c6,3.6,10.5,9,11.5,17c0.1,0.9,0.2,1.7,0.2,2.3v0c0.2,6.7-3,11.8-7.7,15.3
		c-5.4,4.1-12.8,6.5-20.2,7.4c-10.1,1.2-20.8-0.3-29.4-6.1c-5.8-3.9-10.2-9.5-12.1-17c-1-4-5-6.4-9-5.4c-4,1-6.4,5-5.4,9
		c2.8,11.4,9.6,20,18.3,25.8c6.9,4.6,15,7.4,23.5,8.5v11.6c0,4.1,3.3,7.4,7.4,7.4s7.4-3.3,7.4-7.4v-11.5l1-0.1
		c9.7-1.2,19.7-4.5,27.4-10.3c8.3-6.3,13.9-15.4,13.6-27.5c0-1.4-0.1-2.6-0.2-3.7c-1.6-13.4-8.9-22.2-18.6-28
		c-8.8-5.3-19.5-8-29.3-9.6c-7.8-1.3-16-3.5-22.1-7.5c-5.3-3.5-9.1-8.5-9.5-15.9c-0.4-7.8,3-14.1,8.4-18.5c4-3.2,9-5.5,14.5-6.6
		c5.6-1.1,11.6-1,17.1,0.4c9.2,2.3,17.6,8.4,22,18.9c1.6,3.8,5.9,5.6,9.7,4C203.6,245.6,205.4,241.2,203.8,237.4L203.8,237.4z
		 M537.7,50.6c0-25.9-73.6-46.8-164.5-46.8c-90.8,0-164.5,21-164.5,46.8c0,25.9,73.6,46.8,164.5,46.8
		C464.1,97.4,537.7,76.4,537.7,50.6z M208.8,77.7v39c25.5,7.9,48.5,21.5,67.3,39.4c27.2,5.7,60.8,9,97.1,9c44,0,84-4.9,113.5-13
		c31.4-8.5,50.9-20.6,50.9-33.9l0-40.6C524.9,88,506.5,94.3,493.6,98c-37.7,10.7-81.3,14.3-120.4,14.3c-39.1,0-82.6-3.5-120.4-14.3
		C240,94.3,221.6,88,208.8,77.7L208.8,77.7z M292.7,174.3c13.1,16.6,23.2,35.7,29.4,56.4c16.1,1.5,33.3,2.3,51.1,2.3
		c44,0,84-4.9,113.5-13c31.4-8.5,50.9-20.6,50.9-33.9v-40.6c-13.6,10.9-33.5,17.4-47,21.1c-37.1,10.1-79.1,13.5-117.4,13.5
		C346.7,180.1,319.3,178.4,292.7,174.3L292.7,174.3z M326,245.9c2.2,11.1,3.4,22.5,3.4,34.2c0,6.4-0.3,12.6-1,18.8
		c14.3,1.1,29.3,1.8,44.9,1.8c44,0,84-4.9,113.5-13c31.4-8.5,50.9-20.6,50.9-33.9v-40.6c-13.6,10.9-33.5,17.4-47,21.1
		c-37.1,10.1-79.1,13.5-117.4,13.5C357.5,247.8,341.7,247.2,326,245.9L326,245.9z M326.1,313.7c-3.6,18.2-10.1,35.3-19,50.9
		c20.2,2.5,42.6,3.9,66.1,3.9c44,0,84-4.9,113.5-13c31.4-8.5,50.9-20.6,50.9-33.9V281c-13.6,10.9-33.5,17.4-47,21.1
		c-37.1,10.1-79.1,13.5-117.4,13.5c-15.4,0-30.8-0.6-46.1-1.8L326.1,313.7z M298.3,378.4c-11.9,17-26.9,31.7-44.1,43.3
		c29.9,8.9,72.2,14.5,119,14.5c90.8,0,164.4-21,164.4-46.8v-40.6c-13.6,10.9-33.5,17.4-47,21.1c-37.1,10.1-79.1,13.5-117.4,13.5
		c-22.7,0-45.5-1.2-68-4.1L298.3,378.4z"/>
</g>
</svg>
