<?xml version="1.0" encoding="utf-8"?>
<!-- Generator: Adobe Illustrator 27.2.0, SVG Export Plug-In . SVG Version: 6.00 Build 0)  -->
<svg version="1.1" id="Capa_1" xmlns="http://www.w3.org/2000/svg" xmlns:xlink="http://www.w3.org/1999/xlink" x="0px" y="0px"
	 viewBox="0 0 410 538" style="enable-background:new 0 0 410 538;" xml:space="preserve">
<style type="text/css">
	.st0{fill:#FFFFFF;}
</style>
<g>
	<path class="st0" d="M87.4,130.5h86.4v91.4H87.4V130.5z"/>
	<path class="st0" d="M366,1.8H44C21.3,1.8,2.9,20.2,2.9,42.9v451.9c0,22.8,18.5,41.4,41.1,41.4l322,0c22.7,0,41.1-18.6,41.1-41.4
		V42.9C407.1,20.2,388.7,1.8,366,1.8L366,1.8z M61.1,420.5c0-7.3,5.9-13.1,13.1-13.1h262.9c7.3,0,13.1,5.9,13.1,13.1
		s-5.9,13.1-13.1,13.1H74.3C67,433.6,61.1,427.7,61.1,420.5z M337.2,373L73,373c-7.3,0-13.1-5.9-13.1-13.1s5.9-13.1,13.1-13.1h264.2
		c7.3,0,13.1,5.9,13.1,13.1S344.5,373,337.2,373L337.2,373z M74.3,286.1h254.2c7.3,0,13.1,5.9,13.1,13.1s-5.9,13.1-13.1,13.1
		l-254.2,0c-7.3,0-13.1-5.9-13.1-13.1S67,286.1,74.3,286.1L74.3,286.1z M61.1,226.5V125.8c0-11.9,9.7-21.5,21.5-21.5h96
		c11.7,0,21.4,9.7,21.4,21.5v100.7c0,11.9-9.5,21.5-21.4,21.5h-96C70.8,248,61.1,238.3,61.1,226.5L61.1,226.5z M251.9,165h76.6
		c7.3,0,13.1,5.9,13.1,13.1s-5.9,13.1-13.1,13.1h-76.6c-7.3,0-13.1-5.9-13.1-13.1S244.6,165,251.9,165z M238.8,117.4
		c0-7.3,5.9-13.1,13.1-13.1h76.6c7.3,0,13.1,5.9,13.1,13.1s-5.9,13.1-13.1,13.1h-76.6C244.6,130.5,238.8,124.6,238.8,117.4z
		 M251.9,225.5h76.6c7.3,0,13.1,5.9,13.1,13.1c0,7.3-5.9,13.1-13.1,13.1h-76.6c-7.3,0-13.1-5.9-13.1-13.1
		C238.8,231.4,244.6,225.5,251.9,225.5z"/>
</g>
</svg>
