<?xml version="1.0" encoding="utf-8"?>
<!-- Generator: Adobe Illustrator 27.2.0, SVG Export Plug-In . SVG Version: 6.00 Build 0)  -->
<svg version="1.1" id="Capa_1" xmlns="http://www.w3.org/2000/svg" xmlns:xlink="http://www.w3.org/1999/xlink" x="0px" y="0px"
	 viewBox="0 0 547 546" style="enable-background:new 0 0 547 546;" xml:space="preserve">
<style type="text/css">
	.st0{fill:#FFFFFF;}
</style>
<g>
	<path class="st0" d="M113,222.2c-1,3.8-4.4,6.5-8.4,6.7H92.7c-4.2,0-7.8,3-8.6,7.1c-4.9,24.5-4.9,49.6,0,74.1
		c0.8,4.1,4.4,7.1,8.6,7.1h11.9c4,0.1,7.4,2.8,8.4,6.7c2.9,9.1,6.6,17.9,11,26.4c2,3.4,1.5,7.7-1.2,10.6l-8.5,8.5
		c-3,3-3.4,7.6-1.1,11.1c13.9,20.7,31.7,38.5,52.4,52.4c3.5,2.3,8.1,1.9,11.1-1.1l8.5-8.5c2.9-2.7,7.2-3.2,10.6-1.2
		c8.5,4.4,17.3,8.1,26.4,10.9c3.8,1,6.5,4.4,6.7,8.4v11.9c0,4.2,3,7.8,7.1,8.6c24.5,4.9,49.6,4.9,74.1,0c4.1-0.8,7.1-4.4,7.1-8.6
		v-11.9c0.1-4,2.8-7.4,6.7-8.4c9.1-2.9,17.9-6.6,26.4-11c3.4-2,7.7-1.5,10.6,1.2l8.5,8.5c3,3,7.6,3.4,11.1,1.1
		c20.7-13.9,38.5-31.7,52.4-52.4c2.3-3.5,1.9-8.1-1.1-11.1l-8.5-8.5c-2.7-2.9-3.2-7.2-1.2-10.6c4.4-8.5,8.1-17.3,10.9-26.4
		c1-3.8,4.4-6.5,8.4-6.7h11.9c4.2,0,7.8-3,8.6-7.1c4.9-24.5,4.9-49.6,0-74.1c-0.8-4.1-4.4-7.1-8.6-7.1h-11.9c-4-0.1-7.4-2.8-8.4-6.7
		c-2.9-9.1-6.6-17.9-11-26.4c-2-3.4-1.5-7.7,1.2-10.6l8.5-8.5c3-3,3.4-7.6,1.1-11.1c-13.9-20.7-31.7-38.5-52.4-52.4
		c-3.5-2.3-8.1-1.9-11.1,1.1l-8.5,8.5v0c-2.9,2.7-7.2,3.2-10.6,1.2c-8.5-4.4-17.3-8.1-26.4-10.9c-3.8-1-6.5-4.4-6.7-8.4V92.7
		c0-4.2-3-7.8-7.1-8.6c-24.5-4.8-49.6-4.8-74.1,0c-4.1,0.8-7.1,4.4-7.1,8.6v11.9c-0.1,4-2.8,7.4-6.7,8.4c-9.1,2.9-17.9,6.6-26.4,11
		c-3.4,2-7.7,1.5-10.6-1.2l-8.5-8.5c-3-3-7.6-3.4-11.1-1.1c-20.7,13.9-38.5,31.7-52.4,52.4c-2.3,3.5-1.9,8.1,1.1,11.1l8.5,8.5h0
		c2.7,2.9,3.2,7.2,1.2,10.6C119.6,204.3,115.9,213.1,113,222.2L113,222.2z M129.7,227.5L129.7,227.5c2.6-8.1,5.9-16,9.8-23.6
		c2.7-5,3.7-10.7,2.9-16.3c-0.8-5.6-3.3-10.8-7.3-14.8l-3.3-3.3v0c10.6-14.4,23.2-27.1,37.6-37.6l3.3,3.3c4,4,9.2,6.5,14.8,7.3
		c5.6,0.8,11.3-0.2,16.3-2.9c7.6-3.9,15.5-7.2,23.6-9.8c5.4-1.6,10.1-4.9,13.5-9.4s5.3-10,5.3-15.6v-4.6v0c17.6-2.8,35.6-2.8,53.2,0
		v4.6v0c0.1,5.6,1.9,11.1,5.3,15.6s8.1,7.8,13.5,9.4c8.1,2.6,16,5.9,23.6,9.8c5,2.7,10.7,3.7,16.3,2.9c5.6-0.8,10.8-3.3,14.8-7.3
		l3.3-3.3h0c14.4,10.6,27.1,23.2,37.6,37.6l-3.3,3.3c-4,4-6.5,9.2-7.3,14.8c-0.8,5.6,0.2,11.3,2.9,16.3c3.9,7.6,7.2,15.5,9.8,23.6
		c1.6,5.4,4.9,10.1,9.4,13.5s10,5.3,15.6,5.3h4.6h0c2.8,17.6,2.8,35.6,0,53.2h-4.6h0c-5.6,0.1-11.1,1.9-15.6,5.3s-7.8,8.1-9.4,13.5
		c-2.6,8.1-5.9,16-9.8,23.6c-2.7,5-3.7,10.7-2.9,16.3c0.8,5.6,3.3,10.8,7.3,14.8l3.3,3.3v0c-10.6,14.4-23.2,27.1-37.6,37.6l-3.3-3.3
		c-4-4-9.2-6.5-14.8-7.3c-5.6-0.8-11.3,0.2-16.3,2.9c-7.6,3.9-15.5,7.2-23.6,9.8c-5.4,1.6-10.1,4.9-13.5,9.4s-5.3,10-5.3,15.6v4.6v0
		c-17.6,2.8-35.6,2.8-53.2,0v-4.6v0c-0.1-5.6-1.9-11.1-5.3-15.6s-8.1-7.8-13.5-9.4c-8.1-2.6-16-5.9-23.6-9.8c-5-2.7-10.7-3.7-16.3-3
		c-5.6,0.8-10.8,3.3-14.8,7.3l-3.3,3.3h0c-14.4-10.6-27.1-23.2-37.6-37.6l3.3-3.3c4-4,6.5-9.2,7.3-14.8c0.8-5.6-0.2-11.3-2.9-16.3
		c-3.9-7.6-7.2-15.5-9.8-23.6c-1.6-5.4-4.9-10.1-9.4-13.5s-10-5.3-15.6-5.3h-4.6h0c-2.8-17.6-2.8-35.6,0-53.2h4.6h0
		c5.6-0.1,11.1-1.9,15.6-5.3S128.1,232.9,129.7,227.5L129.7,227.5z"/>
	<path class="st0" d="M273,404.2c34.8,0,68.2-13.8,92.8-38.4c24.6-24.6,38.4-58,38.4-92.8s-13.8-68.2-38.4-92.8
		c-24.6-24.6-58-38.4-92.8-38.4c-34.8,0-68.2,13.8-92.8,38.4c-24.6,24.6-38.4,58-38.4,92.8c0,34.8,13.9,68.2,38.5,92.8
		S238.2,404.2,273,404.2z M273,159.2c30.2,0,59.1,12,80.4,33.3s33.3,50.3,33.3,80.4s-12,59.1-33.3,80.4s-50.3,33.3-80.4,33.3
		s-59.1-12-80.4-33.3s-33.3-50.3-33.3-80.4c0-30.2,12-59.1,33.4-80.4C213.9,171.3,242.8,159.3,273,159.2L273,159.2z"/>
	<path class="st0" d="M224.9,238c5.8,0,11.4-2.3,15.5-6.4s6.4-9.7,6.4-15.5s-2.3-11.4-6.4-15.5s-9.7-6.4-15.5-6.4
		s-11.4,2.3-15.5,6.4s-6.4,9.7-6.4,15.5c0,5.8,2.3,11.4,6.4,15.5C213.5,235.7,219.1,238,224.9,238L224.9,238z M224.9,211.8
		c1.8,0,3.4,1.1,4,2.7c0.7,1.6,0.3,3.5-0.9,4.8s-3.1,1.6-4.8,0.9c-1.6-0.7-2.7-2.3-2.7-4C220.5,213.7,222.5,211.8,224.9,211.8
		L224.9,211.8z"/>
	<path class="st0" d="M224.9,343c5.8,0,11.4-2.3,15.5-6.4s6.4-9.7,6.4-15.5s-2.3-11.4-6.4-15.5s-9.7-6.4-15.5-6.4
		s-11.4,2.3-15.5,6.4s-6.4,9.7-6.4,15.5c0,5.8,2.3,11.4,6.4,15.5C213.5,340.7,219.1,343,224.9,343L224.9,343z M224.9,316.8
		c1.8,0,3.4,1.1,4,2.7c0.7,1.6,0.3,3.5-0.9,4.8s-3.1,1.6-4.8,0.9c-1.6-0.7-2.7-2.3-2.7-4C220.5,318.7,222.5,316.8,224.9,316.8
		L224.9,316.8z"/>
	<path class="st0" d="M224.9,290.5c5.8,0,11.4-2.3,15.5-6.4s6.4-9.7,6.4-15.5s-2.3-11.4-6.4-15.5s-9.7-6.4-15.5-6.4
		s-11.4,2.3-15.5,6.4s-6.4,9.7-6.4,15.5c0,5.8,2.3,11.4,6.4,15.5C213.5,288.2,219.1,290.5,224.9,290.5L224.9,290.5z M224.9,264.2
		c1.8,0,3.4,1.1,4,2.7c0.7,1.6,0.3,3.5-0.9,4.8s-3.1,1.6-4.8,0.9c-1.6-0.7-2.7-2.3-2.7-4C220.5,266.2,222.5,264.3,224.9,264.2
		L224.9,264.2z"/>
	<path class="st0" d="M255.5,207.4H343v17.5h-87.5V207.4z"/>
	<path class="st0" d="M255.5,259.9H343v17.5h-87.5V259.9z"/>
	<path class="st0" d="M255.5,312.4H343v17.5h-87.5V312.4z"/>
	<path class="st0" d="M45.5,89.2c11.6,0,22.7-4.6,30.9-12.8c8.2-8.2,12.8-19.3,12.8-30.9s-4.6-22.7-12.8-30.9
		C68.2,6.4,57.1,1.8,45.5,1.8S22.8,6.4,14.6,14.6C6.4,22.8,1.8,33.9,1.8,45.5c0,11.6,4.6,22.7,12.8,30.9
		C22.8,84.6,33.9,89.2,45.5,89.2z M45.5,19.2c7,0,13.6,2.8,18.6,7.7s7.7,11.6,7.7,18.6S69,59.1,64.1,64.1s-11.6,7.7-18.6,7.7
		S31.9,69,26.9,64.1s-7.7-11.6-7.7-18.6c0-7,2.8-13.6,7.7-18.6C31.9,22,38.5,19.3,45.5,19.2L45.5,19.2z"/>
	<path class="st0" d="M539.8,492.9l-61.2-35c-2.7-1.5-6-1.5-8.7,0c-2.7,1.6-4.4,4.4-4.4,7.6v70c0,3.1,1.7,6,4.4,7.6
		c2.7,1.6,6,1.6,8.7,0l61.2-35c2.7-1.6,4.4-4.5,4.4-7.6S542.6,494.5,539.8,492.9L539.8,492.9z M483,520.4v-39.8l34.9,19.9L483,520.4
		z"/>
	<path class="st0" d="M448,36.8H98v17.5h350c20.9,0,40.9,8.3,55.7,23.1c14.8,14.8,23.1,34.8,23.1,55.7v87.5
		c0,11.6-4.6,22.7-12.8,30.9c-8.2,8.2-19.3,12.8-30.9,12.8h-8.8v17.5h8.8c16.2,0,31.8-6.5,43.3-18c11.5-11.5,17.9-27.1,18-43.3V133
		c0-25.5-10.2-50-28.2-68C498,46.9,473.5,36.8,448,36.8z"/>
	<path class="st0" d="M98,509.2h358.8v-17.5H98c-20.9,0-40.9-8.3-55.7-23.1c-14.8-14.8-23.1-34.8-23.1-55.7v-87.5
		c0-11.6,4.6-22.7,12.8-30.9c8.2-8.2,19.3-12.8,30.9-12.8h8.8v-17.5H63c-16.2,0-31.8,6.5-43.3,18c-11.5,11.5-17.9,27.1-18,43.3V413
		c0,25.5,10.2,50,28.2,68S72.5,509.2,98,509.2z"/>
</g>
</svg>
