<?xml version="1.0" encoding="utf-8"?>
<!-- Generator: Adobe Illustrator 26.2.1, SVG Export Plug-In . SVG Version: 6.00 Build 0)  -->
<svg version="1.1" id="Layer_1" xmlns="http://www.w3.org/2000/svg" xmlns:xlink="http://www.w3.org/1999/xlink" x="0px" y="0px"
	 viewBox="0 0 449 447" style="enable-background:new 0 0 449 447;" xml:space="preserve">
<style type="text/css">
	.st0{fill:#FFFFFF;}
</style>
<path class="st0" d="M271.9,443.6c45.4,0,88.9-18,121.1-50.1s50.1-75.7,50.1-121.1c0-45.4-18-88.9-50.1-121.1
	c-32.1-32.1-75.7-50.1-121.1-50.1H98.4l49.1-49.1c5.3-5.1,8.3-12.1,8.4-19.5c0.1-7.3-2.8-14.4-8-19.6c-5.2-5.2-12.3-8.1-19.6-8
	c-7.3,0.1-14.4,3.1-19.5,8.4l-95.9,95.9c-5.1,5.1-8,12.1-8,19.4c0,7.3,2.9,14.2,8,19.4l95.9,95.9c7,6.7,16.9,9.3,26.3,6.7
	c9.3-2.6,16.6-9.8,19.2-19.2c2.6-9.3,0-19.3-6.7-26.3L98.4,156h173.6c41.6,0,80,22.2,100.8,58.2c20.8,36,20.8,80.4,0,116.4
	c-20.8,36-59.2,58.2-100.8,58.2H87c-9.8,0-18.8,5.2-23.7,13.7c-4.9,8.5-4.9,18.9,0,27.4c4.9,8.5,13.9,13.7,23.7,13.7L271.9,443.6
	L271.9,443.6z"/>
</svg>
