<?xml version="1.0" encoding="utf-8"?>
<!-- Generator: Adobe Illustrator 25.0.1, SVG Export Plug-In . SVG Version: 6.00 Build 0)  -->
<svg version="1.1" xmlns="http://www.w3.org/2000/svg" xmlns:xlink="http://www.w3.org/1999/xlink" x="0px" y="0px"
	 viewBox="0 0 278.69 287.05" style="enable-background:new 0 0 278.69 287.05;" xml:space="preserve">
<style type="text/css">
	.st0{fill:#271F5F;}
	.st1{fill:#B6A249;}
</style>
<g id="Capa_1">
</g>
<g id="Capa_1_copia_2">
</g>
<g id="Capa_1_copia">
	<path class="st0" d="M270.29,144.53c0,72.35-58.65,131-131,131S8.3,216.88,8.3,144.53c0-72.35,58.65-130.99,130.99-130.99
		S270.29,72.19,270.29,144.53 M268.28,144.53c0-71.12-57.86-128.99-128.99-128.99C68.17,15.54,10.3,73.41,10.3,144.53
		c0,71.13,57.87,128.99,128.99,128.99C210.42,273.52,268.28,215.66,268.28,144.53"/>
	<path class="st0" d="M261.54,144.53c0,67.52-54.74,122.25-122.25,122.25S17.04,212.05,17.04,144.53
		c0-67.51,54.73-122.25,122.25-122.25S261.54,77.02,261.54,144.53 M260.57,144.53c0-66.87-54.41-121.28-121.28-121.28
		c-66.87,0-121.28,54.41-121.28,121.28c0,66.88,54.41,121.28,121.28,121.28C206.16,265.81,260.57,211.41,260.57,144.53"/>
	<polygon class="st1" points="95.1,196.9 88.98,196.9 88.98,204.19 95.9,204.19 95.9,208.75 83.73,208.75 83.73,181.77 
		95.46,181.77 95.46,186.34 88.98,186.34 88.98,192.54 95.1,192.54 	"/>
	<path class="st1" d="M112.52,181.05v21.94c0,1.84,0.08,3.96,0.16,5.76h-4.52l-0.28-2.2h-0.12c-0.72,1.4-2.28,2.52-4.04,2.52
		c-4.16,0-6.09-4.6-6.09-10.05c0-6.8,3.01-10.17,6.28-10.17c1.72,0,2.77,0.88,3.28,2h0.08v-9.81H112.52z M107.27,196.7
		c0-0.32,0-0.76-0.08-1.12c-0.16-1.2-0.8-2.28-1.84-2.28c-1.84,0-2.52,2.64-2.52,5.84c0,3.73,1,5.65,2.44,5.65
		c0.68,0,1.44-0.36,1.84-1.68c0.12-0.32,0.16-0.76,0.16-1.24V196.7z"/>
	<path class="st1" d="M118.32,186.86c-1.45,0-2.64-1.16-2.6-2.84c-0.04-1.76,1.24-2.88,2.68-2.88c1.52,0,2.68,1.12,2.68,2.88
		c0.04,1.68-1.16,2.84-2.72,2.84H118.32z M115.84,189.18h5.24v19.58h-5.24V189.18z"/>
	<path class="st1" d="M130.57,184.09v5.08h3.84v3.73h-3.84v8.92c0,2.28,0.96,2.84,1.96,2.84c0.52,0,0.92-0.04,1.4-0.12l0.04,4.09
		c-0.72,0.19-1.84,0.36-3.2,0.36c-1.52,0-2.84-0.36-3.8-1.24c-1.04-1.04-1.64-2.52-1.64-5.6v-9.25H123v-3.73h2.32v-3.44
		L130.57,184.09z"/>
	<path class="st1" d="M143.06,209.07c-4.68,0-7.49-3.72-7.49-10.05c0-7.01,3.68-10.17,7.57-10.17c4.64,0,7.4,3.88,7.4,10.04
		c0,8.13-4.52,10.17-7.45,10.17H143.06z M143.17,205.07c1.72,0,2.16-3.28,2.16-6.13c0-2.72-0.44-6.09-2.25-6.09
		c-1.92,0-2.32,3.36-2.32,6.09c0,3.32,0.52,6.13,2.36,6.13H143.17z"/>
	<path class="st1" d="M153.1,195.06c0-1.92-0.08-4.05-0.16-5.88h4.53l0.28,2.88h0.16c0.84-2.08,2.44-3.2,3.85-3.2
		c0.56,0,0.84,0.04,1.12,0.08v5.21c-0.32-0.04-0.68-0.04-1.12-0.04c-1.12,0-2.61,0.76-3.16,2.76c-0.16,0.44-0.24,1.16-0.24,1.96
		v9.93h-5.24V195.06z"/>
	<path class="st1" d="M166.99,186.86c-1.44,0-2.64-1.16-2.6-2.84c-0.04-1.76,1.24-2.88,2.68-2.88c1.52,0,2.68,1.12,2.68,2.88
		c0.04,1.68-1.16,2.84-2.73,2.84H166.99z M164.51,189.18h5.24v19.58h-5.24V189.18z"/>
	<path class="st1" d="M186.29,204.27c0,1.56,0.08,3.16,0.28,4.48h-4.68l-0.28-1.92h-0.12c-1.04,1.52-2.6,2.24-4.32,2.24
		c-2.97,0-5.17-2.48-5.17-5.92c0-5.16,4.53-7.24,8.97-7.28v-0.44c0-1.56-0.88-2.68-2.76-2.68c-1.56,0-2.8,0.44-4.01,1.16l-0.96-3.56
		c1.12-0.6,3.36-1.48,6.12-1.48c5.97,0,6.93,4.16,6.93,8.16V204.27z M181.12,199.23c-1.72,0.04-4.16,0.64-4.16,3.36
		c0,1.92,1.08,2.64,1.88,2.64c0.88,0,1.8-0.48,2.16-1.68c0.08-0.24,0.12-0.56,0.12-0.92V199.23z"/>
	<rect x="189.61" y="181.05" class="st1" width="5.24" height="27.71"/>
	<path class="st1" d="M163.65,248.78h5.24v-11.13h6.08v-4.35h-6.08v-6.93h6.48v-4.56h-11.72V248.78z M154.49,240.42
		c0,3.48-1.28,4.08-2.8,4.08c-0.68,0-1.2-0.04-1.72-0.2l-0.44,4.4c0.6,0.24,1.56,0.4,2.64,0.4c3.84,0,7.6-1.16,7.6-8.92V221.8h-5.28
		V240.42z M140.99,226.13c0.32-0.12,0.81-0.2,1.29-0.2c2.44,0,3.4,1.84,3.4,4.21c0,2.52-1.2,4.4-3.85,4.4c-0.32,0-0.6,0-0.84-0.08
		V226.13z M135.75,248.78h5.24v-10.04h1.04c2.16,0,4.89-0.8,6.56-2.56c1.4-1.52,2.28-3.56,2.28-6.49c0-2.28-0.72-4.52-2.32-5.92
		c-1.76-1.64-4.2-2.08-7.33-2.08c-2,0-4,0.2-5.48,0.52V248.78z M131.78,232.57h-6.17v-6.21h6.49v-4.56h-11.72v26.97h12.2v-4.56
		h-6.97v-7.29h6.17V232.57z M107.97,248.78h5.24v-22.13h4.8v-4.84h-14.81v4.84h4.76V248.78z"/>
	<path class="st0" d="M194.57,61.23c-0.39,4.03-2.36,7.76-5.29,10.95c-2.56,2.8-5.75,5.13-9.23,7.05
		c-8.49,4.74-18.79,7.14-27.13,8.23h0c0.39,3.97,1.01,7.91,1.84,11.82c0.77,3.54,1.7,7.03,2.85,10.46c4.7-0.67,9.62-1.68,14.47-3.07
		c6.74-1.93,13.28-4.6,18.93-8.2c0.14-0.08,0.31-0.2,0.62-0.42c7.25-4.8,12.6-11.37,12.55-18.28c0-3.1-1-6.4-3.53-9.98L194.57,61.23
		z"/>
	<path class="st0" d="M84.05,138.09c0.73-7.63,6.9-13.22,12.5-16.76c0.67-0.41,1.36-0.81,2.02-1.18c6.82-3.87,13.93-5.95,21.45-7.36
		c0.12-0.32,0.23-0.64,0.35-0.99c1.43-4.08,2.58-8.28,3.49-12.52c0.74-3.38,1.29-6.8,1.68-10.23c-6.2,0.67-12.7,1.85-18.96,3.64
		c-5.91,1.7-11.62,3.95-16.66,6.82c-0.99,0.56-1.95,1.16-2.91,1.8c-7.21,4.79-12.65,11.31-12.6,18.24c0.01,3.09,1,6.4,3.57,10.02
		L84.05,138.09z"/>
	<path class="st0" d="M115.93,44.69c-0.85-0.75-1.73-1.4-2.66-1.91c-0.92-0.51-1.91-0.89-2.93-1.14c-0.87-0.2-1.76-0.32-2.67-0.32
		c0,0-0.09,0.01-0.26,0.01v0.01c-0.93,0.02-1.91,0.17-2.89,0.41c-5.77,2.56-10.35,5.22-13.94,10.3l-3.24,4.55
		c9.25-5.47,20.46-8.59,30.23-10.26C117.07,45.76,116.52,45.21,115.93,44.69"/>
	<path class="st0" d="M192.66,102.02c-4.91,3.09-10.42,5.49-16.11,7.35c3.19,3.15,4.8,6.63,4.8,10.14c0,0.94-0.11,1.87-0.33,2.77
		c-1.2,4.87-5.1,8.94-10.42,12.04c1.58,1.8,3.26,3.45,5.13,4.88c1.04,0.81,2.13,1.54,3.28,2.16c1.06,0.56,2.17,1.02,3.37,1.37
		c0.06,0.02,0.13,0.05,0.21,0.06c6.19-2.7,13.57-7.07,17.78-12.85c1.25-1.71,2.25-3.51,2.88-5.44c0.59-1.75,0.85-3.4,0.85-4.99
		C204.17,112.54,198.78,106.32,192.66,102.02"/>
	<path class="st0" d="M203.9,168.13l-5.17-27.28c-0.87,1.01-1.87,1.97-2.93,2.79c-0.36,0.28-0.73,0.55-1.09,0.79
		c-0.64,0.42-1.31,0.81-2.07,1.21c-1.18,0.55-2.45,0.99-3.78,1.23c-0.98,0.18-1.96,0.27-2.94,0.27c-0.35,0-0.69-0.01-1.05-0.03
		c-0.81-0.05-1.57-0.17-2.31-0.33h-0.02l-0.19-0.04c-0.41-0.09-0.83-0.19-1.18-0.31c-1.39-0.4-2.72-0.97-3.99-1.64
		c-1.39-0.74-2.67-1.6-3.86-2.53c-2.71-2.08-5.04-4.53-7.13-7.14l-0.12-0.17l-0.05-0.1c-2.38-3.05-4.46-6.35-6.24-9.76
		c-1.7-3.23-3.15-6.55-4.43-9.92c-0.26-0.68-0.49-1.35-0.72-2.03c-0.12-0.27-0.19-0.53-0.25-0.75c-1.39-4.03-2.53-8.15-3.44-12.32
		c-1-4.65-1.7-9.39-2.08-14.14l-0.01-0.08v0c-0.21-2.56-0.31-5.13-0.31-7.69c0-2.03,0.07-4.07,0.2-6.07
		c0.27-4.22,0.86-8.42,1.89-12.54l0.02-0.09l0.02-0.08c0.02,0,0.02-0.09,0.1-0.34c0.42-1.68,0.94-3.34,1.53-4.95
		c0.6-1.64,1.31-3.27,2.14-4.8c0.74-1.46,1.6-2.84,2.58-4.13c0.9-1.21,1.91-2.33,3.03-3.35c0.77-0.69,1.61-1.3,2.5-1.86h-21.29
		v128.16H203.9z"/>
	<path class="st0" d="M111.02,133.73L111.02,133.73L111.02,133.73z"/>
	<path class="st0" d="M98.46,124.72c-5.45,3.42-10.68,8.8-10.6,14.77c0,0.92,0.11,1.88,0.38,2.89c0.73,0.31,1.5,0.55,2.25,0.69
		c0.72,0.13,1.46,0.2,2.22,0.2c0.27,0,0.55-0.01,0.81-0.02c0.93-0.07,1.91-0.25,2.84-0.54c1.11-0.32,2.18-0.77,3.24-1.33
		c1.16-0.62,2.26-1.35,3.33-2.16c1.85-1.43,3.55-3.08,5.09-4.88C104.36,132.21,100.4,129.12,98.46,124.72"/>
	<path class="st0" d="M85.97,97.35c0.65-0.42,1.34-0.84,2.04-1.23c4.36-2.49,9.14-4.5,14.08-6.12c-2.98-2.99-4.76-6.5-4.76-10.27
		c0-0.88,0.1-1.77,0.29-2.62c0.64-2.92,2.38-5.72,5.13-8.27c5.72-5.22,14-8.03,21.16-9.48c-0.78-2.87-1.8-5.65-3.16-8.25
		c-0.21-0.41-0.44-0.82-0.68-1.23c-12.67,1.93-28.3,6.57-37.85,15.23c-1.58,1.44-2.93,2.89-4,4.32c-2.6,3.5-3.71,6.92-3.73,10.22
		C74.48,85.82,78.55,92.12,85.97,97.35"/>
	<path class="st0" d="M180.2,74.63c2.37-1.5,4.48-3.2,6.21-5.08c2.81-3.07,4.34-6.41,4.34-9.78c0-2.09-0.57-4.24-1.88-6.48
		c-0.23-0.38-0.42-0.69-0.6-0.95c-3.17-4.66-8.91-8.25-14.11-10.57c-0.98-0.25-1.98-0.4-2.89-0.43c-0.21,0-0.31-0.01-0.31-0.01
		c-0.94,0-1.9,0.12-2.77,0.35h-0.01c-0.97,0.25-1.91,0.61-2.79,1.1c-0.97,0.52-1.88,1.19-2.72,1.93c-0.93,0.86-1.77,1.79-2.52,2.79
		c-0.85,1.13-1.6,2.33-2.25,3.61c-0.75,1.39-1.38,2.83-1.93,4.34c-0.47,1.29-0.89,2.59-1.25,3.9c4.06,0.83,9.35,2.31,14.2,4.73
		C173.66,66.45,178.13,69.81,180.2,74.63"/>
	<path class="st0" d="M121.67,45.25c0.31,0.46,0.65,0.93,1,1.46c0.53,0.83,1.06,1.7,1.53,2.6c1.59,3.06,2.76,6.3,3.62,9.63h0.04
		l0.35,1.51c0.88,3.83,1.39,7.73,1.66,11.61c0.13,2,0.19,4,0.19,5.99c0,2.64-0.11,5.28-0.3,7.89c-0.03,0.38-0.06,0.78-0.11,1.17
		c-0.4,4.34-1.04,8.7-1.98,12.99c-0.94,4.39-2.16,8.74-3.63,13.01c-0.25,0.69-0.5,1.4-0.78,2.07c-1.25,3.41-2.75,6.72-4.43,9.93
		c-1.81,3.43-3.88,6.74-6.24,9.82l-0.58,0.76h-0.03c-1.96,2.41-4.14,4.66-6.67,6.62c-1.21,0.91-2.47,1.77-3.89,2.51
		c-1.24,0.66-2.56,1.23-3.96,1.63c-1.16,0.35-2.39,0.6-3.69,0.69c-0.34,0.01-0.7,0.02-1.07,0.02c-0.97,0-1.95-0.09-2.93-0.27
		c-1.31-0.25-2.57-0.69-3.65-1.19c-0.12-0.06-0.24-0.1-0.48-0.24c-0.53-0.28-1.11-0.58-1.66-0.96c-0.41-0.27-0.77-0.54-1.14-0.81
		c-1.07-0.84-2.05-1.79-2.93-2.81l-5.19,27.27h62.66V39.97h-21.28c0.86,0.55,1.68,1.15,2.42,1.8
		C119.69,42.8,120.72,43.96,121.67,45.25"/>
</g>
<g id="Capa_2">
</g>
</svg>
