<?xml version="1.0" encoding="utf-8"?>
<!-- Generator: Adobe Illustrator 25.0.1, SVG Export Plug-In . SVG Version: 6.00 Build 0)  -->
<svg version="1.1" id="Layer_1" xmlns="http://www.w3.org/2000/svg" xmlns:xlink="http://www.w3.org/1999/xlink" x="0px" y="0px"
	 viewBox="0 0 425.2 425.2" style="enable-background:new 0 0 425.2 425.2;" xml:space="preserve">
<style type="text/css">
	.st0{fill:#5BCAE9;}
</style>
<g>
	<path class="st0" d="M228.5,234.09c0,3.43-0.01,4.87-0.01,4.87c0,3.61-3.11,6.57-6.72,6.57h-39.34c-3.61,0-6.57-2.95-6.57-6.57
		v-52.84c0-4.21,3.3-6.83,7.85-6.83h42.02c0.96,0,1.9,0.77,1.9,1.73c0,0.97-0.93,1.75-1.9,1.75c0,0-42.12,0-42.15,0
		c-2.84,0-3.88,2.14-3.88,3.35c0,1.21,1.04,3.5,3.74,3.5c0,0,15.59-0.01,27.89-0.02c-7.03,3.59-11.55,8.4-12.84,18.45
		c-0.8,6.21,1.06,12.77,5.09,17.58c4.05,4.81,10.18,8.28,16.4,8.9c2.85,0.28,6.48-0.17,8.43-0.7L228.5,234.09z"/>
	<path d="M249.63,235.18c-0.16,1.87-1.04,3.56-2.47,4.76c-1.27,1.05-2.87,1.64-4.49,1.64c-0.24,0-3.44-0.03-5.37-2.51l-7.96-9.07
		c-2.22,0.79-5.27,1.44-8.65,1.12c-5.49-0.53-10.47-3.08-14.03-7.3c-3.54-4.23-5.23-9.59-4.74-15.07
		c0.92-10.57,9.96-18.86,20.57-18.86c6.34,0,12.27,3.15,15.83,7.38c3.55,4.24,5.23,9.58,4.76,15.09c-0.29,3.13-1.24,6.08-2.86,8.78
		l7.8,8.93C249.23,231.51,249.8,233.33,249.63,235.18z M222.47,197.4c-6.73,0-12.45,5.26-13.04,11.97
		c-0.64,7.21,4.7,13.58,11.92,14.21c0.38,0.03,0.76,0.05,1.15,0.05c6.74,0,12.47-5.26,13.06-11.97
		C236.2,204.46,230.54,197.4,222.47,197.4z"/>
</g>
</svg>
