<?xml version="1.0" encoding="utf-8"?>
<!-- Generator: Adobe Illustrator 27.2.0, SVG Export Plug-In . SVG Version: 6.00 Build 0)  -->
<svg version="1.1" id="Capa_1" xmlns="http://www.w3.org/2000/svg" xmlns:xlink="http://www.w3.org/1999/xlink" x="0px" y="0px"
	 viewBox="0 0 546 487" style="enable-background:new 0 0 546 487;" xml:space="preserve">
<style type="text/css">
	.st0{fill:#FFFFFF;}
</style>
<g>
	<path class="st0" d="M510.6,126.9V367c0,4.2-3.4,8.5-8.5,8.5H43.9c-5.1,0-8.5-4.2-8.5-8.5V126.9c0-24.6,20.4-45,45-45H144v17H80.4
		c-15.3,0-28,12.7-28,28v231.6h441.2V126.9c0-15.3-12.7-28-28-28H402v-17h63.6C490.2,81.9,510.6,101.5,510.6,126.9L510.6,126.9z"/>
	<path class="st0" d="M161,2.2h168v237.6H161V2.2z"/>
	<path class="st0" d="M385,289.8c0,17-14.4,31.4-31.4,31.4H167.8c9.3-21.2,9.3-41.6,0-62.8h185.8C370.6,258.4,385,272,385,289.8
		L385,289.8z"/>
	<path class="st0" d="M385,33.6v217.2c-8.5-6.8-19.5-11-31.4-11h-5.9V2.2h5.9C370.6,2.2,385,15.8,385,33.6L385,33.6z"/>
	<path class="st0" d="M536,391.6H10c-4.2,0-8.5,4.2-8.5,8.5v38.2c0,26.3,21.2,47.5,47.5,47.5h448c26.3,0,47.5-21.2,47.5-47.5v-38.2
		C544.5,395.9,540.3,391.6,536,391.6L536,391.6z M309.5,447.6h-73.8c-4.2,0-8.5-3.4-8.5-8.5c0-4.2,4.2-8.5,8.5-8.5h73.8
		c5.1,0,8.5,4.2,8.5,8.5C318,443.4,314.6,447.6,309.5,447.6z"/>
</g>
</svg>
