<?xml version="1.0" encoding="utf-8"?>
<!-- Generator: Adobe Illustrator 27.2.0, SVG Export Plug-In . SVG Version: 6.00 Build 0)  -->
<svg version="1.1" id="Capa_1" xmlns="http://www.w3.org/2000/svg" xmlns:xlink="http://www.w3.org/1999/xlink" x="0px" y="0px"
	 viewBox="0 0 493 455" style="enable-background:new 0 0 493 455;" xml:space="preserve">
<style type="text/css">
	.st0{fill:#FFFFFF;}
</style>
<g>
	<path class="st0" d="M93.6,312.2c32.6,0,59.2-29.4,59.2-65.6s-26.5-65.6-59.2-65.6s-59.2,29.4-59.2,65.6
		C34.4,282.7,61,312.2,93.6,312.2z M93.6,213.7c16.7,0,30.3,14.7,30.3,32.8s-13.6,32.8-30.3,32.8s-30.3-14.7-30.3-32.8
		S76.9,213.7,93.6,213.7z"/>
	<path class="st0" d="M152.8,388.7c0-36.2-26.5-65.6-59.2-65.6s-59.2,29.4-59.2,65.6s26.5,65.6,59.2,65.6S152.8,424.9,152.8,388.7z
		 M93.6,421.5c-16.7,0-30.3-14.7-30.3-32.8s13.6-32.8,30.3-32.8s30.3,14.7,30.3,32.8C123.9,406.8,110.3,421.5,93.6,421.5z"/>
	<path class="st0" d="M93.6,268.4c10.7,0,19.4-9.8,19.4-21.9s-8.7-21.9-19.4-21.9c-10.7,0-19.4,9.8-19.4,21.9S82.9,268.4,93.6,268.4
		z"/>
	<path class="st0" d="M93.6,366.8c-10.7,0-19.4,9.8-19.4,21.9s8.7,21.9,19.4,21.9c10.7,0,19.4-9.8,19.4-21.9
		C113,376.7,104.3,366.8,93.6,366.8z"/>
	<path class="st0" d="M93.6,126.2c10.7,0,19.4-9.8,19.4-21.9s-8.7-21.9-19.4-21.9c-10.7,0-19.4,9.8-19.4,21.9S82.9,126.2,93.6,126.2
		z"/>
	<path class="st0" d="M93.6,170c32.6,0,59.2-29.4,59.2-65.6s-26.5-65.6-59.2-65.6s-59.2,29.4-59.2,65.6C34.4,140.5,61,170,93.6,170z
		 M93.6,71.5c16.7,0,30.3,14.7,30.3,32.8s-13.6,32.8-30.3,32.8s-30.3-14.7-30.3-32.8S76.9,71.5,93.6,71.5z"/>
	<path class="st0" d="M388.3,38.7H129.7c20.4,13.4,34,37.8,34,65.6s-13.7,52.2-34,65.6h258.6c35.5,0,64.8-28.9,65.2-64.4
		c0-0.6,0-1.2,0-1.9c0-17.3-6.7-33.5-18.9-45.8C422.3,45.5,405.8,38.7,388.3,38.7L388.3,38.7z M346.2,82.5H204c-3,0-5.5-2.4-5.5-5.5
		s2.4-5.5,5.5-5.5h142.2c3,0,5.5,2.4,5.5,5.5S349.2,82.5,346.2,82.5z"/>
	<path class="st0" d="M388.3,323.1H129.7c20.4,13.4,34,37.8,34,65.6s-13.7,52.2-34,65.6h258.6c35.5,0,64.8-28.9,65.2-64.4
		c0-0.6,0-1.2,0-1.9c0-17.3-6.7-33.5-18.9-45.8C422.3,329.9,405.8,323.1,388.3,323.1L388.3,323.1z M349.6,366.8H204
		c-3,0-5.5-2.4-5.5-5.5s2.4-5.5,5.5-5.5h145.7c3,0,5.5,2.4,5.5,5.5S352.7,366.8,349.6,366.8z M382.4,372.3c-6,0-10.9-4.9-10.9-10.9
		s4.9-10.9,10.9-10.9s10.9,4.9,10.9,10.9S388.5,372.3,382.4,372.3z"/>
	<path class="st0" d="M388.3,180.9H129.7c20.4,13.4,34,37.8,34,65.6s-13.7,52.2-34,65.6h258.6c35.5,0,64.8-28.9,65.2-64.4
		c0-0.6,0-1.2,0-1.9c0-17.3-6.7-33.5-18.9-45.8C422.3,187.7,405.8,180.9,388.3,180.9L388.3,180.9z M207.4,230.1
		c-6,0-10.9-4.9-10.9-10.9s4.9-10.9,10.9-10.9s10.9,4.9,10.9,10.9S213.5,230.1,207.4,230.1z M346.1,224.7H240.3
		c-3,0-5.5-2.4-5.5-5.5s2.4-5.5,5.5-5.5h105.9c3,0,5.5,2.4,5.5,5.5S349.2,224.7,346.1,224.7z"/>
	<path class="st0" d="M475.4,38.7c6,0,10.9-4.9,10.9-10.9s-4.9-10.9-10.9-10.9s-10.9,4.9-10.9,10.9S469.4,38.7,475.4,38.7z"/>
	<path class="st0" d="M491.8,437.9c0,6-4.9,10.9-10.9,10.9S470,444,470,437.9s4.9-10.9,10.9-10.9S491.8,431.9,491.8,437.9"/>
	<path class="st0" d="M480.9,186.4c0,6-4.9,10.9-10.9,10.9s-10.9-4.9-10.9-10.9s4.9-10.9,10.9-10.9S480.9,180.3,480.9,186.4"/>
	<path class="st0" d="M32.4,11.4c0,6-4.9,10.9-10.9,10.9s-10.9-4.9-10.9-10.9S15.5,0.4,21.5,0.4C27.6,0.4,32.4,5.3,32.4,11.4"/>
	<path class="st0" d="M21.5,186.4c0,6-4.9,10.9-10.9,10.9s-10.9-4.9-10.9-10.9s4.9-10.9,10.9-10.9S21.5,180.3,21.5,186.4"/>
</g>
</svg>
