<?xml version="1.0" encoding="utf-8"?>
<!-- Generator: Adobe Illustrator 25.0.1, SVG Export Plug-In . SVG Version: 6.00 Build 0)  -->
<svg version="1.1" xmlns="http://www.w3.org/2000/svg" xmlns:xlink="http://www.w3.org/1999/xlink" x="0px" y="0px"
	 viewBox="0 0 852 167" style="enable-background:new 0 0 852 167;" xml:space="preserve">
<style type="text/css">
	.st0{fill:#271F5F;}
	.st1{display:none;}
	.st2{display:inline;}
	.st3{font-family:'AvenirNextCondensed-DemiBold';}
	.st4{font-size:98.172px;}
	.st5{letter-spacing:-2;}
</style>
<g id="Layer_1">
	<g>
		<path class="st0" d="M66.61,139.77c47.36,0,73.26-39.24,73.26-73.27c0-1.11-0.02-2.22-0.08-3.33c5.04-3.62,9.4-8.17,12.84-13.34
			c-4.62,2.05-9.58,3.43-14.78,4.06c5.31-3.19,9.38-8.23,11.32-14.24c-4.97,2.95-10.49,5.1-16.35,6.26
			c-4.71-5.01-11.38-8.14-18.79-8.14c-14.21,0-25.74,11.54-25.74,25.74c0,2.01,0.23,3.97,0.66,5.88
			c-21.39-1.1-40.38-11.34-53.08-26.91c-2.2,3.79-3.49,8.22-3.49,12.93c0,8.93,4.54,16.82,11.47,21.44
			c-4.24-0.13-8.2-1.29-11.68-3.23v0.33c0,12.47,8.88,22.89,20.66,25.24c-2.16,0.58-4.44,0.91-6.78,0.91
			c-1.66,0-3.27-0.17-4.84-0.47c3.28,10.24,12.79,17.69,24.05,17.88c-8.81,6.92-19.92,11.03-31.98,11.03
			c-2.08,0-4.12-0.11-6.15-0.36C38.53,135.52,52.07,139.77,66.61,139.77"/>
		<g>
			<path class="st0" d="M210.25,121.69V50.47h31.89v10.66h-20.32v18.91h18.81v9.86h-18.81v21.03h21.33v10.76H210.25z"/>
			<path class="st0" d="M276.54,121.69v-7.34h-0.2c-0.74,2.55-2,4.7-3.77,6.44c-1.78,1.74-4.34,2.62-7.7,2.62
				c-2.62,0-4.96-0.7-7.04-2.11c-2.08-1.41-3.82-3.37-5.23-5.89c-1.41-2.51-2.48-5.47-3.22-8.85c-0.74-3.39-1.11-7.06-1.11-11.02
				c0-3.89,0.35-7.48,1.06-10.76c0.7-3.28,1.76-6.12,3.17-8.5c1.41-2.38,3.13-4.24,5.18-5.58c2.04-1.34,4.44-2.01,7.19-2.01
				c2.82,0,5.2,0.79,7.14,2.36c1.94,1.58,3.29,3.54,4.02,5.89h0.3V45.64h11.17v76.06H276.54z M276.74,96.04
				c0-2.48-0.19-4.78-0.55-6.89c-0.37-2.11-0.91-3.96-1.61-5.53c-0.7-1.57-1.61-2.82-2.72-3.72c-1.11-0.91-2.36-1.36-3.77-1.36
				c-1.48,0-2.75,0.45-3.82,1.36c-1.07,0.91-1.95,2.15-2.62,3.72c-0.67,1.58-1.17,3.42-1.51,5.53c-0.34,2.11-0.5,4.41-0.5,6.89
				c0,2.41,0.17,4.68,0.5,6.79c0.33,2.11,0.84,3.96,1.51,5.53c0.67,1.58,1.54,2.82,2.62,3.72c1.07,0.91,2.35,1.36,3.82,1.36
				c1.47,0,2.75-0.45,3.82-1.36c1.07-0.91,1.96-2.15,2.67-3.72c0.7-1.57,1.24-3.42,1.61-5.53
				C276.56,100.72,276.74,98.45,276.74,96.04z"/>
			<path class="st0" d="M311.05,55.5c0,2.01-0.64,3.69-1.91,5.03c-1.27,1.34-2.85,2.01-4.73,2.01c-1.95,0-3.54-0.67-4.78-2.01
				c-1.24-1.34-1.86-3.02-1.86-5.03c0-1.94,0.62-3.62,1.86-5.03c1.24-1.41,2.83-2.11,4.78-2.11c1.94,0,3.54,0.7,4.78,2.11
				C310.43,51.87,311.05,53.55,311.05,55.5z M298.77,121.69V70.39h11.37v51.31H298.77z"/>
			<path class="st0" d="M332.78,79.14v26.36c0,2.82,0.42,4.86,1.26,6.14c0.84,1.27,2.13,1.91,3.87,1.91c0.6,0,1.22-0.07,1.86-0.2
				c0.64-0.13,1.19-0.33,1.66-0.6l0.2,8.85c-0.8,0.4-1.88,0.74-3.22,1.01c-1.34,0.27-2.68,0.4-4.02,0.4c-4.36,0-7.49-1.29-9.41-3.87
				c-1.91-2.58-2.87-6.29-2.87-11.12V79.14h-6.44v-8.75h6.44V57.31h10.66v13.08h8.95v8.75H332.78z"/>
			<path class="st0" d="M383.98,96.14c0,4.02-0.45,7.71-1.36,11.07c-0.91,3.35-2.22,6.22-3.93,8.6c-1.72,2.38-3.78,4.24-6.2,5.58
				c-2.42,1.34-5.18,2.01-8.27,2.01c-3.09,0-5.85-0.67-8.27-2.01c-2.42-1.34-4.49-3.2-6.2-5.58c-1.71-2.38-3.03-5.25-3.93-8.6
				c-0.91-3.35-1.36-7.04-1.36-11.07c0-4.09,0.45-7.83,1.36-11.22c0.91-3.39,2.2-6.29,3.88-8.7c1.68-2.41,3.75-4.28,6.2-5.58
				c2.45-1.31,5.23-1.96,8.32-1.96c3.09,0,5.85,0.65,8.27,1.96c2.42,1.31,4.49,3.17,6.2,5.58s3.03,5.32,3.93,8.7
				C383.53,88.31,383.98,92.05,383.98,96.14z M372.61,96.04c0-2.48-0.17-4.78-0.5-6.89c-0.34-2.11-0.85-3.96-1.56-5.53
				c-0.7-1.57-1.58-2.82-2.62-3.72c-1.04-0.91-2.3-1.36-3.77-1.36c-1.48,0-2.73,0.45-3.77,1.36c-1.04,0.91-1.9,2.15-2.57,3.72
				c-0.67,1.58-1.17,3.42-1.51,5.53c-0.34,2.11-0.5,4.41-0.5,6.89c0,2.41,0.17,4.7,0.5,6.84c0.33,2.15,0.84,3.99,1.51,5.53
				c0.67,1.54,1.52,2.77,2.57,3.67c1.04,0.91,2.3,1.36,3.77,1.36c1.47,0,2.75-0.45,3.82-1.36c1.07-0.91,1.94-2.13,2.62-3.67
				c0.67-1.54,1.17-3.39,1.51-5.53C372.45,100.73,372.61,98.45,372.61,96.04z"/>
			<path class="st0" d="M407.82,71.59c1.88-1.94,4.09-2.92,6.64-2.92c0.33,0,0.62,0,0.85,0c0.23,0,0.52,0.07,0.86,0.2l-0.6,11.67
				c-0.74-0.2-1.54-0.3-2.41-0.3c-1.48,0-2.78,0.45-3.92,1.36c-1.14,0.91-2.11,2.1-2.92,3.57c-0.8,1.48-1.41,3.15-1.81,5.03
				c-0.4,1.88-0.6,3.79-0.6,5.73v25.75h-11.57V70.39h11.17v9.86h0.2C404.57,76.42,405.95,73.54,407.82,71.59z"/>
			<path class="st0" d="M432.87,55.5c0,2.01-0.64,3.69-1.91,5.03c-1.28,1.34-2.85,2.01-4.73,2.01c-1.95,0-3.54-0.67-4.78-2.01
				c-1.24-1.34-1.86-3.02-1.86-5.03c0-1.94,0.62-3.62,1.86-5.03c1.24-1.41,2.83-2.11,4.78-2.11c1.94,0,3.54,0.7,4.78,2.11
				C432.25,51.87,432.87,53.55,432.87,55.5z M420.6,121.69V70.39h11.37v51.31H420.6z"/>
			<path class="st0" d="M464.36,114.05c-0.74,2.82-2.08,5.01-4.02,6.59c-1.95,1.57-4.53,2.36-7.75,2.36c-1.48,0-2.99-0.27-4.53-0.8
				c-1.54-0.54-2.93-1.42-4.17-2.67c-1.24-1.24-2.26-2.85-3.07-4.83c-0.8-1.98-1.21-4.38-1.21-7.19c0-3.62,0.65-6.59,1.96-8.9
				c1.31-2.31,2.98-4.14,5.03-5.48c2.05-1.34,4.33-2.26,6.84-2.77c2.51-0.5,4.98-0.75,7.39-0.75h2.82v-1.61
				c0-3.42-0.69-5.89-2.06-7.39c-1.38-1.51-3.2-2.26-5.48-2.26c-1.95,0-3.71,0.45-5.28,1.36c-1.58,0.91-2.93,2.1-4.07,3.57
				l-5.43-7.14c1.88-2.35,4.26-4.17,7.14-5.48c2.88-1.31,5.73-1.96,8.55-1.96c3.15,0,5.82,0.5,8,1.51c2.18,1.01,3.94,2.46,5.28,4.38
				c1.34,1.91,2.3,4.28,2.87,7.09c0.57,2.82,0.86,6,0.86,9.56v30.48h-9.46v-7.65H464.36z M463.96,97.65h-3.32
				c-1.41,0-2.77,0.12-4.07,0.35c-1.31,0.24-2.46,0.69-3.47,1.36c-1.01,0.67-1.81,1.59-2.42,2.77c-0.6,1.17-0.91,2.67-0.91,4.48
				c0,2.68,0.59,4.66,1.76,5.94c1.17,1.28,2.53,1.91,4.07,1.91c1.54,0,2.85-0.44,3.92-1.31c1.07-0.87,1.93-1.98,2.57-3.32
				c0.64-1.34,1.11-2.83,1.41-4.48c0.3-1.64,0.45-3.24,0.45-4.78V97.65z"/>
			<path class="st0" d="M484.48,121.69V45.64h11.37v76.06H484.48z"/>
			<path class="st0" d="M525.43,60.73v60.97h-11.87V60.73h-13.38V50.47h38.63v10.26H525.43z"/>
			<path class="st0" d="M543.43,121.69V50.47h31.89v10.66H555v18.91h18.81v9.86H555v21.03h21.33v10.76H543.43z"/>
			<path class="st0" d="M624.62,71.49c0,3.62-0.55,6.79-1.65,9.51c-1.1,2.72-2.56,4.98-4.36,6.79c-1.8,1.81-3.88,3.15-6.21,4.02
				c-2.34,0.87-4.75,1.31-7.22,1.31h-8.42v28.57h-11.87V50.47h19.67c2.27,0,4.62,0.34,7.03,1.01c2.41,0.67,4.57,1.83,6.47,3.47
				c1.91,1.64,3.48,3.81,4.72,6.49C624,64.12,624.62,67.47,624.62,71.49z M613.25,71.64c0-3.81-0.91-6.58-2.72-8.31
				c-1.81-1.74-4.12-2.6-6.94-2.6h-6.84v22.53h6.84c2.82,0,5.13-0.98,6.94-2.95C612.34,78.34,613.25,75.45,613.25,71.64z"/>
			<path class="st0" d="M655.65,117.57c-2.99,3.96-7.66,5.94-14.03,5.94c-4.63,0-8.45-1.26-11.47-3.77
				c-3.02-2.51-5.03-5.88-6.04-10.11l10.06-4.33c0.4,1.74,1.19,3.34,2.36,4.78c1.17,1.44,2.73,2.16,4.68,2.16
				c2.75,0,4.59-1.11,5.53-3.32c0.94-2.21,1.41-5.23,1.41-9.05v-49.4h11.97v50.5C660.13,108.08,658.64,113.61,655.65,117.57z"/>
			<path class="st0" d="M683.77,61.33v19.52h18.31v10.26h-18.21v30.58H671.7V50.47h31.89v10.87H683.77z"/>
		</g>
	</g>
</g>
<g id="Layer_2" class="st1">
	<g class="st2">
		<path class="st0" d="M77.91,24.53c-32.99,0-59.74,26.74-59.74,59.72c0,33.02,26.75,59.76,59.74,59.76s59.74-26.74,59.74-59.76
			C137.65,51.27,110.91,24.53,77.91,24.53 M100.53,57.1c-0.18,0-0.36,0.03-0.52,0.03c-2.41,0-4.8-0.03-7.23,0.01
			c-2.81,0.04-4.87,1.39-6.2,3.8c-0.49,0.92-0.76,1.94-0.76,3.03c0.04,1.84,0.04,3.66,0.04,5.54h14.67v15.51H85.86v48.21H65.37
			V85.07H52.13V69.53h0.58h12.02c0.63,0,0.63,0,0.63-0.66c0-3.07-0.05-6.14,0.02-9.22c0.07-2.18,0.47-4.32,1.29-6.4
			c0.62-1.58,1.42-3.02,2.43-4.36c1.27-1.71,2.82-3.16,4.63-4.3c1.91-1.26,3.99-2.1,6.17-2.61c0.87-0.22,1.79-0.36,2.69-0.36
			c5.82-0.05,11.67-0.03,17.52-0.03c0.13,0,0.26,0.03,0.42,0.03V57.1z"/>
		<text transform="matrix(1 0 0 1 204.396 119.8945)" class="st0 st3 st4 st5">Editorial del TEPJF</text>
	</g>
</g>
</svg>
